<?xml version="1.0" encoding="UTF-8" standalone="no"?>
<svg
   xmlns:dc="http://purl.org/dc/elements/1.1/"
   xmlns:cc="http://creativecommons.org/ns#"
   xmlns:rdf="http://www.w3.org/1999/02/22-rdf-syntax-ns#"
   xmlns:svg="http://www.w3.org/2000/svg"
   xmlns="http://www.w3.org/2000/svg"
   xmlns:sodipodi="http://sodipodi.sourceforge.net/DTD/sodipodi-0.dtd"
   xmlns:inkscape="http://www.inkscape.org/namespaces/inkscape"
   width="48"
   height="48"
   viewBox="0 0 48 48"
   id="svg2"
   version="1.1"
   inkscape:version="0.48.4 r9939"
   sodipodi:docname="digitalocean-indicator.svg">
  <metadata
     id="metadata14">
    <rdf:RDF>
      <cc:Work
         rdf:about="">
        <dc:format>image/svg+xml</dc:format>
        <dc:type
           rdf:resource="http://purl.org/dc/dcmitype/StillImage" />
      </cc:Work>
    </rdf:RDF>
  </metadata>
  <defs
     id="defs12" />
  <sodipodi:namedview
     pagecolor="#ffffff"
     bordercolor="#666666"
     borderopacity="1"
     objecttolerance="10"
     gridtolerance="10"
     guidetolerance="10"
     inkscape:pageopacity="0"
     inkscape:pageshadow="2"
     inkscape:window-width="1547"
     inkscape:window-height="876"
     id="namedview10"
     showgrid="false"
     fit-margin-top="0"
     fit-margin-left="0"
     fit-margin-right="0"
     fit-margin-bottom="0"
     inkscape:zoom="10.321181"
     inkscape:cx="-1.373629"
     inkscape:cy="29.341711"
     inkscape:window-x="53"
     inkscape:window-y="24"
     inkscape:window-maximized="1"
     inkscape:current-layer="svg2"
     inkscape:snap-page="false" />
  <path
     d="m 46.723997,23.267797 a 20.484568,19.799465 0 1 1 -40.9691352,0 20.484568,19.799465 0 1 1 40.9691352,0 z"
     sodipodi:ry="19.799465"
     sodipodi:rx="20.484568"
     sodipodi:cy="23.267797"
     sodipodi:cx="26.239429"
     id="path2993"
     style="fill:#ffffff;fill-opacity:1;fill-rule:nonzero;stroke:#ffffff;stroke-width:2.03900003;stroke-miterlimit:4;stroke-opacity:1;stroke-dasharray:none"
     sodipodi:type="arc"
     transform="matrix(1.0050283,0,0,1.0398044,-2.3229098,-0.1924615)" />
  <path
     sodipodi:type="arc"
     style="fill:#398bce;fill-opacity:1;fill-rule:nonzero;stroke:#ffffff;stroke-width:2.03900003;stroke-miterlimit:4;stroke-opacity:1;stroke-dasharray:none"
     id="path2995"
     sodipodi:cx="26.239429"
     sodipodi:cy="23.267797"
     sodipodi:rx="20.484568"
     sodipodi:ry="19.799465"
     d="m 46.723997,23.267797 a 20.484568,19.799465 0 1 1 -40.9691352,0 20.484568,19.799465 0 1 1 40.9691352,0 z"
     transform="matrix(1.0454634,0,0,1.0816387,-3.4854946,-1.2512364)" />
  <g
     id="g4"
     transform="matrix(2.0091236,0,0,1.9983979,-0.13588781,-1.6852435)">
    <path
       d="M 11.383037,3.9518899 C 9.4338184,6.6784529 2.8127254,14.373765 5.6330374,18.819078 c 2.179688,3.441406 9.5976566,3.457031 11.7539066,0 C 20.195537,14.322984 13.039287,6.6784529 11.383037,3.9518899 z"
       id="path6"
       inkscape:connector-curvature="0"
       style="fill-opacity:0.30199998" />
    <path
       d="M 11.894531,3.273438 C 9.945312,6 3.324219,13.695312 6.144531,18.140625 c 2.179688,3.441406 9.597657,3.457031 11.753907,0 C 20.707031,13.640625 13.550781,6 11.894531,3.273438 z"
       id="path8"
       inkscape:connector-curvature="0"
       style="fill:#dcdcdc" />
  </g>
</svg>
